<svg xmlns="http://www.w3.org/2000/svg" width="153" height="29" viewBox="0 0 153 29" fill="#1a1a1a"><path d="M23.7558 8.45625C28.3117 8.45625 30.7271 11.2762 30.7271 15.9494V28.5371H25.7023V17.0298C25.7023 13.9021 24.5351 12.3567 22.0809 12.3567C19.706 12.3567 17.8371 14.0175 17.8371 17.841V28.5371H12.8512V17.0298C12.8512 13.9021 11.6823 12.3567 9.22976 12.3567C6.81606 12.3567 4.98427 14.0175 4.98427 17.841V28.5371H0V8.91956H4.90668V12.2413C5.84113 9.96324 8.14014 8.45625 10.9823 8.45625C14.2933 8.45625 16.1234 9.96324 17.0966 12.2797C18.3431 9.92477 20.8361 8.45625 23.7558 8.45625Z"/><path d="M48.4644 25.409C47.4912 27.3776 45.1146 29 42.1156 29C36.9374 29 33.3936 24.8303 33.3936 18.7288C33.3936 12.6657 36.9374 8.45584 42.1156 8.45584C45.1922 8.45584 47.4524 10.1552 48.3869 12.1238V0.114738H53.3711V28.5367H48.4644V25.409ZM48.5032 18.3809C48.5032 14.5574 46.6731 12.0853 43.519 12.0853C40.2855 12.0853 38.4166 14.7129 38.4166 18.7288C38.4166 22.7831 40.2855 25.3705 43.519 25.3705C46.6731 25.3705 48.5032 22.8985 48.5032 19.0766V18.3809Z"/><path d="M55.3213 12.4721V8.91955H58.047V6.13974C58.047 2.08376 60.5012 -0.000257883 64.5123 -0.000257883C65.5631 -0.000257883 66.5768 0.038214 67.3949 0.19209V3.93697C66.8096 3.86003 66.1872 3.82156 65.4855 3.82156C64.045 3.82156 63.033 4.47888 63.033 6.37056V8.91955H67.0423V12.4721H63.033V28.5371H58.047V12.4721H55.3213Z"/><path d="M75.6074 0.770797H80.9037V5.59783H75.6074V0.770797ZM75.7626 8.91955H80.7469V28.5371H75.7626V8.91955Z"/><path d="M95.2176 28.267C93.6591 28.7303 92.4919 28.8457 91.2842 28.8457C87.1568 28.8457 85.131 27.1079 85.131 23.169V12.4729H82.4053V8.91872H85.131V4.01475H90.0765V8.91872H94.7892V12.4729H90.0377V22.3963C90.0377 24.2512 90.935 24.8683 92.6083 24.8683C93.3488 24.8683 94.128 24.7914 95.2176 24.482V28.267Z"/><path d="M109.874 25.4469C108.939 27.6864 106.446 28.9609 103.292 28.9609C99.4361 28.9609 96.6328 26.8368 96.6328 23.2842C96.6328 19.3453 99.7482 17.7246 103.759 17.2596L109.678 16.604V15.6774C109.678 13.2823 108.199 12.1232 105.94 12.1232C103.759 12.1232 102.435 13.3207 102.28 15.1355H97.4897C97.9181 10.9256 101.227 8.45525 106.095 8.45525C111.471 8.45525 114.548 10.9658 114.548 16.0638V23.6321C114.548 25.4469 114.625 26.9522 114.935 28.5361H110.145C109.951 27.454 109.874 26.4136 109.874 25.4469ZM109.678 20.9293V19.7317L105.277 20.2335C103.176 20.5044 101.578 20.9677 101.578 23.0133C101.578 24.5587 102.668 25.5238 104.655 25.5238C107.225 25.5238 109.678 24.0185 109.678 20.9293Z"/><path d="M118.281 0.11515H123.266V28.5371H118.281V0.11515Z"/><path d="M126.972 0.770797H132.268V5.59783H126.972V0.770797ZM127.129 8.91955H132.113V28.5371H127.129V8.91955Z"/><path d="M147.938 25.4469C147.004 27.6864 144.511 28.9609 141.356 28.9609C137.501 28.9609 134.697 26.8368 134.697 23.2842C134.697 19.3453 137.813 17.7246 141.824 17.2596L147.742 16.604V15.6774C147.742 13.2823 146.263 12.1232 144.005 12.1232C141.824 12.1232 140.5 13.3207 140.344 15.1355H135.554C135.983 10.9256 139.292 8.45525 144.16 8.45525C149.535 8.45525 152.612 10.9658 152.612 16.0638V23.6321C152.612 25.4469 152.69 26.9522 153 28.5361H148.211C148.016 27.454 147.938 26.4136 147.938 25.4469ZM147.742 20.9293V19.7317L143.343 20.2335C141.24 20.5044 139.643 20.9677 139.643 23.0133C139.643 24.5587 140.734 25.5238 142.719 25.5238C145.29 25.5238 147.742 24.0185 147.742 20.9293Z"/></svg>
