<svg width="148.33" height="25.5" id="Capa_1" data-name="Capa 1" xmlns="http://www.w3.org/2000/svg" viewBox="0 0 148.33 25.5"><defs><style>.cls-1,.cls-2{fill:#1e1e1c}.cls-1{fill-rule:evenodd}</style></defs><title>-Mesa de trabajo 1</title><path class="cls-1" d="M10.52 19.62h4.4a.23.23 0 0 0 .2-.1l7-9.23A.19.19 0 0 0 22 10h-4.5a.28.28 0 0 0-.21.1l-4.53 6.5-4.58-6.5A.25.25 0 0 0 8 10H3.49a.18.18 0 0 0-.15.3l7 9.23a.25.25 0 0 0 .18.09z"/><rect class="cls-2" x="25.54" y="9.99" width="4.78" height="9.64" rx=".25" ry=".25"/><rect class="cls-2" x="25.54" y="5.65" width="4.78" height="2.23" rx=".25" ry=".25"/><path class="cls-1" d="M51.22 18.32a.25.25 0 0 0-.29-.25 22 22 0 0 1-3.16.2c-6.2 0-8.44-2.33-8.44-4.3 0-1.45 1.29-2.63 3.92-2.63 2.42 0 3 .89 3.1 1.77a.18.18 0 0 0 .18.18h4.64a.26.26 0 0 0 .25-.29c-.17-1.67-2-3.24-7.78-3.24-6.68 0-9.39 2.11-9.39 4.62 0 3.91 4.82 5.47 11 5.47a40.92 40.92 0 0 0 5.75-.42.25.25 0 0 0 .22-.25zm19.2 0a.25.25 0 0 0-.29-.25 21.94 21.94 0 0 1-3.15.2c-6.21 0-8.45-2.33-8.45-4.3 0-1.45 1.3-2.63 3.92-2.63s3.06.93 3.1 1.83a.13.13 0 0 0 .13.12h4.69a.26.26 0 0 0 .25-.29c-.17-1.68-2-3.24-7.78-3.24-6.68 0-9.39 2.11-9.39 4.62 0 3.91 4.82 5.47 11 5.47a41.15 41.15 0 0 0 5.77-.42.25.25 0 0 0 .21-.25zm7.19-1.21c0-1.29 3.7-1.74 6.8-1.74 0 1.32-1.16 2.9-4.26 2.9-1.64 0-2.54-.41-2.54-1.16zm7 2.51h4.07a.26.26 0 0 0 .26-.26v-6.6c0-2-2.37-3-7.45-3s-7.49 1.09-7.74 2.76a.26.26 0 0 0 .25.3h4.21a.18.18 0 0 0 .18-.16c.09-.62.73-1.32 3.14-1.32s2.88.81 2.88 1.76v1c-2.84 0-11.46.06-11.46 3.26 0 1.55 2.59 2.53 6 2.53 3.28 0 4.7-.71 5.35-1.34l.06.87a.26.26 0 0 0 .29.2zm9.39 0h4.27a.25.25 0 0 0 .26-.25v-4c0-2.29 1.83-3.24 6.47-3.28a.25.25 0 0 0 .25-.25V10a.25.25 0 0 0-.26-.25c-3.93 0-5.28 1.09-6.37 2l-.08-1.54a.25.25 0 0 0-.25-.24H94a.25.25 0 0 0-.25.25v9.13a.25.25 0 0 0 .25.27zm19.48-8.48c.65-.49 2.16-1.38 5.3-1.38 4.92 0 7.07 2 7.07 5 0 2.7-2 5.05-8.66 5.05-5.39 0-8.57-1.44-8.57-4.32V5.91a.26.26 0 0 1 .25-.26h4.27a.26.26 0 0 1 .26.26zm3.71 7.13c3.06 0 3.58-1.89 3.58-3.47 0-1.74-.39-3.6-3.58-3.6a3.44 3.44 0 0 0-3.79 3.6c0 2.41.77 3.47 3.79 3.47zm27.33.97a.25.25 0 0 1-.22.25 37.82 37.82 0 0 1-5.51.36c-6.64 0-10.34-2-10.34-5.55 0-2.69 2.58-4.54 8.79-4.54 5.21 0 7.79 1.56 7.79 3.91V14a.26.26 0 0 1-.25.26h-11.9c0 1.33 1.94 4 7.72 4a24.42 24.42 0 0 0 3.62-.32.26.26 0 0 1 .3.25zm-4-6.38c0-.61-.65-1.66-3.62-1.66-2.8 0-3.75 1.09-3.88 1.66z"/></svg>